<?xml version="1.0" standalone="no"?>
<!DOCTYPE svg PUBLIC "-//W3C//DTD SVG 20010904//EN"
  "http://www.w3.org/TR/2001/REC-SVG-20010904/DTD/svg10.dtd">
<svg version="1.0" xmlns="http://www.w3.org/2000/svg"
     width="827.000000pt" height="827.000000pt" viewBox="0 0 827.000000 827.000000"
     preserveAspectRatio="xMidYMid meet">
  <metadata>
    Created by potrace 1.11, written by Peter Selinger 2001-2013
  </metadata>
  <g transform="translate(0.000000,827.000000) scale(0.100000,-0.100000)"
     fill="#000000" stroke="none">
    <path d="M4345 8004 c-182 -39 -359 -171 -430 -321 -117 -246 -27 -504 235
-676 49 -32 64 -48 62 -62 -2 -11 -5 -21 -6 -22 -4 -4 -36 -5 -271 -4 -121 1
-240 -1 -265 -3 -25 -3 -85 -7 -134 -11 -49 -3 -103 -7 -120 -10 -17 -2 -53
-7 -81 -10 -51 -5 -258 -35 -285 -40 -8 -2 -38 -6 -67 -10 -29 -4 -56 -12 -61
-19 -5 -6 -15 -40 -22 -76 -6 -36 -13 -72 -15 -80 -20 -92 -68 -332 -72 -355
-2 -16 -6 -35 -8 -42 -12 -36 665 -259 1105 -363 106 -25 123 -31 121 -45 -1
-12 -112 -15 -177 -5 -27 5 -74 11 -103 15 -30 4 -61 8 -70 10 -9 1 -48 6 -87
10 l-71 7 -12 -46 c-6 -24 -11 -56 -11 -70 0 -15 -6 -26 -14 -26 -7 0 -40 -18
-72 -40 -35 -24 -94 -51 -144 -66 -90 -27 -118 -46 -155 -105 -14 -21 -51 -53
-92 -77 -85 -52 -126 -95 -141 -148 -9 -29 -26 -53 -62 -83 -28 -23 -59 -59
-70 -80 l-19 -38 -63 8 c-35 5 -72 10 -84 13 -12 2 -44 7 -71 11 l-51 6 -11
-48 c-6 -26 -17 -82 -25 -123 -9 -41 -29 -140 -46 -220 -28 -130 -37 -173 -55
-260 -2 -14 -7 -36 -10 -50 -3 -14 -7 -34 -9 -45 -3 -11 -12 -54 -21 -95 -23
-107 -105 -500 -111 -530 -3 -14 -6 -30 -9 -37 -2 -6 4 -18 13 -26 9 -9 30
-41 47 -72 41 -79 68 -96 163 -101 85 -5 296 -34 311 -43 5 -3 12 -24 15 -46
19 -116 51 -185 105 -221 23 -14 42 -37 46 -52 15 -58 47 -112 91 -151 l47
-41 -13 -73 c-7 -39 -14 -79 -15 -87 -3 -21 -45 -250 -48 -258 -1 -4 12 -29
28 -55 73 -118 98 -132 245 -142 47 -3 104 -8 128 -11 43 -5 43 -6 28 -29 -56
-85 -176 -164 -298 -195 -262 -68 -561 77 -865 419 l-84 94 33 22 32 22 51
-30 c27 -16 63 -38 78 -49 16 -12 32 -17 37 -12 15 16 61 195 64 251 4 74 -17
182 -49 245 -64 127 -138 201 -370 370 -55 40 -102 75 -105 78 -3 3 -21 17
-41 32 -61 46 -169 158 -203 211 -57 90 -92 185 -99 270 -2 24 -13 21 -61 -15
-304 -239 -567 -603 -689 -953 -30 -88 -42 -132 -62 -235 -12 -61 -19 -163
-18 -257 4 -320 127 -575 359 -739 41 -29 112 -59 121 -51 5 6 12 74 18 177 7
138 11 157 43 210 67 110 194 60 323 -128 130 -189 209 -284 393 -467 247
-246 429 -385 931 -710 229 -148 362 -267 447 -400 42 -65 91 -174 100 -219 3
-18 6 -16 33 10 145 146 377 285 670 404 187 75 560 197 630 206 33 3 68 8 77
10 35 6 27 -17 -36 -110 -58 -85 -86 -145 -86 -185 0 -37 27 -97 63 -137 103
-117 202 -126 411 -39 42 18 43 21 49 91 5 64 11 73 66 115 54 41 72 88 72
181 0 37 3 70 8 72 15 10 28 83 30 170 l1 53 78 34 c172 75 265 130 520 307
115 80 245 62 303 -42 30 -54 31 -145 2 -202 -22 -42 -107 -134 -123 -134 -6
0 -10 -6 -10 -13 0 -18 139 -51 183 -44 91 14 325 190 436 326 102 125 194
330 217 481 3 19 7 41 9 48 23 68 23 426 0 562 -2 14 -11 68 -20 120 -9 52
-18 106 -20 120 -19 104 -157 610 -166 610 -4 0 -33 -20 -66 -44 -97 -73 -152
-96 -573 -247 -306 -109 -474 -191 -600 -294 -102 -84 -157 -150 -217 -260
-25 -47 -66 -165 -59 -172 2 -3 31 -7 63 -9 149 -10 184 -20 209 -59 31 -48
-53 -134 -214 -218 -101 -52 -232 -101 -232 -86 0 5 -11 20 -24 33 -17 18 -24
39 -28 82 -4 43 -15 76 -42 121 -20 34 -36 72 -36 85 0 70 -40 135 -134 216
-37 32 -37 33 -31 90 3 31 7 64 10 72 2 8 6 47 10 85 3 39 8 84 10 100 2 17 9
71 15 120 6 50 13 106 15 125 3 19 7 58 10 85 9 75 13 84 38 80 12 -2 45 -6
72 -9 28 -4 61 -8 75 -11 14 -2 48 -7 75 -10 77 -10 104 -14 180 -24 39 -6 90
-13 115 -16 25 -3 56 -8 70 -10 14 -3 45 -7 70 -10 52 -6 124 -15 158 -20 13
-2 52 -7 87 -10 l65 -7 1 43 c0 24 2 58 3 74 2 17 6 80 10 140 4 61 9 121 11
135 2 14 7 65 10 114 4 49 8 101 10 115 1 14 6 69 10 121 4 52 8 102 10 110 2
9 6 61 10 116 4 54 9 106 10 114 2 9 6 56 10 105 3 50 8 110 11 135 3 25 7 75
9 111 4 72 9 60 -77 187 -12 19 -27 26 -55 29 -21 1 -78 7 -128 13 -49 6 -107
13 -127 16 -116 13 -200 24 -228 29 -14 2 -47 7 -75 10 -27 3 -79 11 -115 16
-36 6 -74 12 -85 14 -11 1 -23 3 -28 4 -4 0 -5 13 -3 29 4 25 6 45 21 177 3
28 7 68 10 90 3 22 7 61 10 88 10 96 16 143 20 167 22 125 20 134 -36 227 -60
100 -66 107 -94 110 -34 4 -99 13 -130 20 l-29 5 23 19 c41 33 120 47 296 54
94 3 186 7 205 10 19 2 75 7 124 10 49 4 96 8 105 10 9 1 54 6 101 10 47 4 92
9 101 10 9 2 52 6 95 10 43 4 83 10 87 15 4 4 10 29 12 56 13 142 25 277 30
329 2 22 6 76 10 120 l6 80 -124 51 c-68 29 -205 80 -305 114 l-182 63 0 31
c0 59 -20 102 -70 154 -63 65 -72 88 -54 131 19 46 23 98 9 117 -6 9 -43 37
-81 63 -83 56 -93 83 -44 125 35 29 48 31 119 14 103 -23 191 43 191 145 0
125 -118 200 -236 151 -41 -17 -116 -14 -152 5 -11 6 -31 34 -45 63 -55 111
-179 221 -310 272 -139 55 -317 70 -462 40z m315 -75 c119 -23 241 -100 321
-202 42 -52 49 -77 23 -77 -27 0 -72 -33 -79 -57 -3 -13 -12 -23 -20 -23 -9 0
-48 32 -88 71 -93 92 -153 120 -258 124 -89 4 -173 -14 -235 -50 -155 -90
-198 -274 -94 -405 30 -38 31 -40 21 -102 -6 -35 -13 -78 -15 -96 -3 -19 -7
-36 -10 -39 -3 -3 -35 16 -71 42 -125 89 -186 198 -188 335 -1 41 2 90 5 109
12 61 66 155 120 209 145 146 349 204 568 161z m-35 -240 c75 -20 149 -88 130
-119 -3 -5 -27 1 -53 12 -123 55 -301 15 -375 -84 -27 -36 -49 -93 -40 -102 4
-3 2 -6 -4 -6 -14 0 -33 54 -33 93 0 139 205 252 375 206z m491 -119 c72 -35
126 -137 85 -160 -61 -32 -132 11 -144 88 -4 23 -11 42 -16 42 -18 0 -40 31
-34 46 7 19 48 13 109 -16z m-441 -48 c94 -48 140 -131 138 -252 0 -41 -3 -87
-6 -101 -3 -14 -15 -73 -26 -130 -12 -57 -22 -120 -24 -139 -1 -20 -8 -35 -15
-34 -6 1 -26 2 -43 3 l-30 1 6 53 c7 58 11 87 25 167 23 135 29 226 20 289
l-5 34 -32 -27 c-21 -18 -34 -41 -42 -74 -15 -65 -57 -398 -53 -415 2 -5 -23
-6 -55 -3 -85 9 -205 18 -225 18 -21 -1 -21 -4 -8 73 11 70 17 117 25 200 22
217 74 324 173 356 42 13 134 4 177 -19z m227 1 c15 -7 35 -27 43 -43 14 -27
14 -30 -4 -40 -11 -5 -30 -8 -43 -6 -13 3 -31 5 -40 5 -27 1 -48 30 -48 65 0
18 3 36 6 39 9 8 50 -1 86 -20z m515 -7 l28 -24 -21 -29 c-12 -15 -29 -30 -38
-31 -55 -11 -95 33 -76 83 13 34 68 35 107 1z m-370 -176 c26 -12 48 -30 57
-49 l16 -30 -36 -7 c-83 -15 -199 38 -187 86 5 18 13 21 57 19 28 -1 70 -10
93 -19z m-107 -151 c0 -8 -41 -29 -56 -29 -2 0 -4 13 -4 29 0 29 1 30 30 20
17 -6 30 -15 30 -20z m243 -33 c47 -19 87 -70 87 -111 0 -19 -3 -36 -7 -38
-14 -8 -129 21 -169 41 -22 11 -48 30 -59 42 l-20 22 33 29 c37 33 81 38 135
15z m-176 -139 l43 -42 -14 -45 c-7 -25 -12 -62 -10 -83 3 -32 0 -37 -14 -33
-9 2 -35 8 -57 12 -129 24 -118 14 -110 97 4 40 11 73 15 75 4 1 27 16 51 32
24 15 46 29 49 29 3 0 24 -19 47 -42z m240 -130 c60 -32 113 -95 113 -135 0
-18 -4 -23 -16 -18 -9 3 -47 13 -84 20 -123 26 -157 60 -130 127 12 27 17 30
49 26 20 -2 50 -11 68 -20z m-1042 -61 c82 -4 163 -9 180 -11 16 -3 75 -9 130
-15 112 -12 146 -16 190 -24 17 -2 50 -7 75 -11 25 -3 79 -13 120 -20 41 -8
87 -17 103 -19 15 -3 35 -7 45 -10 9 -3 28 -7 42 -10 14 -2 54 -12 90 -21 36
-9 74 -19 85 -21 31 -6 241 -72 320 -100 315 -114 387 -144 393 -163 6 -19
-20 -12 -118 28 -178 72 -604 199 -790 235 -14 2 -58 12 -97 20 -40 9 -87 18
-105 21 -18 3 -55 10 -83 15 -27 5 -72 12 -100 16 -27 3 -68 9 -90 14 -22 4
-47 8 -55 8 -16 0 -113 11 -146 17 -161 26 -746 27 -914 0 -14 -2 -56 -7 -95
-11 -38 -3 -77 -8 -85 -9 -8 -2 -44 -6 -80 -9 -71 -8 -117 -13 -182 -22 l-43
-5 20 20 c20 20 38 24 225 46 25 3 54 7 65 9 11 2 58 7 105 11 47 4 88 9 91
10 3 2 86 7 185 11 98 3 180 7 181 8 3 3 197 -2 338 -8z m95 -79 c14 -3 65 -8
113 -12 48 -3 93 -8 100 -10 7 -2 37 -6 67 -9 30 -3 69 -7 85 -10 17 -3 62
-10 100 -16 111 -18 300 -58 430 -92 66 -16 125 -31 130 -32 76 -17 371 -117
527 -178 l127 -49 -4 -32 c-2 -18 -6 -59 -9 -92 -7 -82 -18 -195 -21 -223 -3
-30 -3 -30 -60 -36 -28 -4 -63 -8 -80 -10 -16 -2 -64 -7 -105 -11 -41 -4 -83
-9 -93 -11 -9 -1 -56 -6 -105 -9 -48 -4 -103 -8 -122 -10 -229 -23 -791 -23
-945 0 -11 2 -47 6 -80 10 -293 31 -729 137 -1081 260 -163 58 -337 126 -348
136 -8 7 44 301 61 346 3 7 30 17 61 24 76 17 79 17 137 24 28 3 57 8 65 10
13 3 77 11 175 20 17 2 84 7 150 10 66 4 122 9 123 10 6 5 575 -3 602 -8z
m-20 -912 c19 -2 62 -8 94 -14 33 -6 61 -11 62 -11 1 0 -2 -20 -7 -44 -4 -24
-11 -66 -14 -92 -3 -27 -7 -60 -10 -74 -2 -14 -7 -43 -9 -65 -15 -118 -19
-142 -22 -159 -6 -30 -44 -325 -49 -376 -3 -25 -7 -56 -10 -70 -4 -26 -9 -59
-20 -150 -4 -30 -8 -66 -10 -80 -2 -14 -9 -65 -15 -115 -6 -49 -13 -101 -15
-115 -2 -14 -7 -50 -10 -80 -3 -30 -8 -66 -10 -80 -2 -14 -11 -81 -20 -150 -9
-69 -18 -136 -20 -150 -2 -14 -6 -50 -10 -81 -3 -31 -7 -65 -9 -75 -5 -28 -15
-102 -21 -154 -7 -61 -13 -105 -30 -220 -11 -78 -14 -94 -20 -150 -4 -30 -10
-75 -15 -100 -4 -25 -8 -52 -8 -60 0 -8 -10 -78 -21 -155 -30 -192 -29 -185
-36 -235 -4 -25 -13 -81 -20 -125 -48 -279 -38 -447 35 -602 36 -78 89 -143
116 -143 17 0 3 51 -34 128 -17 35 -36 95 -42 134 -13 78 -7 260 15 421 3 20
8 56 11 80 3 23 7 54 10 70 2 15 6 42 9 60 3 17 7 43 10 57 2 14 7 45 10 70 4
25 8 56 10 70 7 46 35 251 41 298 3 26 7 58 9 72 2 14 7 50 10 80 3 30 8 66
10 80 2 14 11 81 20 150 8 69 17 139 20 155 2 17 6 48 9 70 3 22 15 108 26
190 12 83 23 166 26 185 6 49 14 105 24 175 5 33 11 83 15 110 8 70 15 125 21
160 3 16 7 50 10 75 2 25 8 70 14 100 5 30 12 80 15 110 3 30 8 62 10 70 2 8
7 44 10 80 4 36 9 74 11 85 2 11 6 40 9 65 3 25 7 61 10 80 2 19 14 107 25
195 30 234 27 223 53 220 12 -1 30 -3 39 -4 12 -1 16 -8 13 -22 -2 -12 -7 -47
-11 -78 -3 -31 -8 -59 -10 -62 -2 -3 -6 -37 -9 -75 -4 -38 -8 -71 -10 -74 -2
-3 -6 -30 -10 -60 -3 -30 -10 -82 -15 -115 -5 -33 -12 -80 -15 -105 -3 -25
-10 -74 -15 -110 -5 -36 -12 -81 -14 -100 -25 -185 -48 -351 -52 -380 -3 -19
-9 -69 -15 -110 -6 -41 -12 -86 -14 -100 -3 -14 -7 -52 -10 -85 -3 -33 -7 -67
-10 -75 -2 -8 -6 -35 -9 -60 -3 -25 -8 -55 -10 -67 -3 -12 -8 -53 -11 -90 -4
-37 -9 -70 -10 -73 -2 -3 -6 -34 -10 -70 -4 -36 -9 -73 -11 -84 -2 -10 -6 -44
-9 -75 -4 -31 -8 -63 -10 -71 -2 -8 -11 -71 -20 -140 -9 -69 -18 -136 -20
-150 -2 -14 -7 -50 -10 -80 -3 -30 -8 -62 -10 -70 -2 -8 -6 -35 -9 -60 -3 -25
-8 -54 -10 -65 -2 -11 -7 -49 -11 -85 -4 -36 -9 -72 -10 -81 -2 -9 -6 -40 -10
-70 -3 -30 -13 -92 -21 -139 -38 -217 -45 -271 -45 -350 -1 -115 8 -171 36
-245 41 -111 109 -196 208 -264 174 -119 453 -163 741 -117 104 17 222 57 346
118 234 116 491 360 525 501 6 24 4 27 -18 27 -39 0 -69 -15 -107 -53 -38 -38
-98 -77 -117 -77 -31 0 -10 42 37 76 57 41 75 65 58 82 -13 13 -60 -4 -108
-38 -30 -22 -60 -26 -60 -10 0 6 7 27 15 47 23 55 20 63 -16 53 -17 -5 -42
-16 -55 -25 -47 -31 -24 8 49 79 125 124 264 201 542 301 88 31 221 79 297
106 75 27 166 63 203 79 38 17 69 29 70 28 4 -5 44 -189 60 -278 53 -298 65
-622 29 -850 -26 -165 -94 -332 -174 -426 -46 -54 -173 -145 -185 -132 -1 2
-6 17 -10 35 -6 29 -1 37 60 100 93 96 116 145 99 211 -8 29 -20 28 -38 -6
-31 -60 -165 -186 -181 -170 -3 3 14 34 37 69 56 84 69 115 70 165 1 83 -27
76 -83 -23 -35 -60 -71 -93 -105 -93 -23 0 -22 3 26 98 33 65 52 115 56 150 5
52 5 53 -16 42 -11 -6 -46 -46 -77 -88 -59 -79 -103 -123 -115 -116 -11 7 16
85 45 132 108 169 154 335 112 399 -20 30 -24 27 -60 -62 -205 -501 -603 -801
-1395 -1048 -80 -25 -246 -75 -370 -112 -363 -107 -603 -183 -700 -220 -106
-40 -255 -114 -315 -155 l-42 -29 -58 65 c-150 170 -400 367 -830 654 -472
314 -674 479 -869 710 -162 191 -305 485 -352 723 -2 10 -5 26 -8 35 -6 18
-19 108 -19 130 -1 28 -30 -17 -42 -65 -20 -77 -15 -114 59 -445 2 -10 0 -18
-5 -18 -11 0 -50 87 -91 203 -28 80 -32 87 -47 73 -17 -18 -21 -119 -9 -213 4
-29 4 -53 0 -53 -9 0 -52 66 -52 79 0 5 -10 13 -21 16 -37 12 -47 -23 -30 -97
10 -43 5 -46 -39 -23 l-30 16 0 -68 c0 -64 -1 -66 -16 -45 -17 24 -46 29 -61
10 -15 -19 -7 -57 27 -132 32 -69 36 -86 21 -86 -11 0 -100 164 -129 240 -80
202 -82 434 -7 664 76 234 240 503 441 726 87 96 96 105 101 92 3 -8 28 -48
56 -90 63 -95 228 -259 418 -416 214 -177 287 -270 324 -413 16 -63 11 -75
-32 -67 -39 7 -72 34 -115 91 -31 42 -42 52 -53 43 -11 -9 -11 -20 0 -68 8
-31 11 -59 9 -61 -3 -3 -31 24 -64 60 -58 63 -68 65 -60 9 5 -33 -100 125
-176 265 -25 47 -49 85 -54 85 -11 0 -30 -57 -30 -89 0 -77 69 -223 186 -397
125 -187 204 -285 329 -410 280 -280 548 -410 826 -399 189 7 353 104 470 277
46 67 92 164 105 218 4 19 8 37 9 40 1 3 5 25 9 50 5 25 10 52 11 61 2 9 6 40
10 70 10 93 14 121 30 234 20 138 20 135 44 285 11 69 23 145 26 170 3 25 10
70 15 100 9 50 36 220 45 280 2 14 6 43 10 65 3 22 8 51 10 65 2 14 11 66 19
115 8 50 18 110 21 135 9 63 15 102 20 120 2 8 6 35 9 60 3 25 8 54 10 65 6
34 17 99 21 130 2 17 15 100 29 185 13 85 27 173 31 195 3 22 7 51 10 65 2 14
11 75 20 135 10 61 19 117 20 127 2 9 7 38 11 65 3 26 8 57 10 68 3 17 20 127
40 265 3 19 7 46 9 60 3 14 10 60 16 104 l12 78 66 -7 c36 -3 82 -8 101 -10z
m528 -50 c3 -3 -18 -5 -46 -5 -29 0 -55 0 -59 -1 -4 0 -9 5 -11 11 -3 9 11 11
53 6 32 -3 60 -8 63 -11z m-1048 -24 c47 -6 112 -13 145 -16 112 -11 104 -1
89 -107 -7 -51 -15 -106 -18 -123 -3 -16 -8 -52 -11 -80 -4 -27 -8 -57 -10
-65 -3 -8 -7 -35 -10 -60 -3 -25 -7 -52 -10 -60 -2 -8 -7 -40 -10 -70 -3 -30
-8 -62 -10 -70 -2 -8 -7 -35 -10 -60 -3 -25 -8 -56 -10 -70 -3 -14 -7 -41 -10
-60 -3 -19 -10 -60 -15 -90 -5 -30 -12 -75 -15 -100 -5 -35 -55 -343 -80 -490
-2 -14 -7 -47 -11 -75 -3 -27 -8 -59 -10 -70 -2 -11 -9 -49 -15 -85 -5 -36
-12 -77 -14 -92 -3 -16 -7 -40 -10 -55 -8 -51 -27 -168 -30 -188 -1 -11 -6
-42 -10 -70 -7 -48 -9 -61 -19 -115 -3 -14 -8 -42 -11 -62 -3 -21 -7 -55 -10
-75 -3 -21 -10 -60 -15 -88 -5 -27 -12 -70 -15 -95 -3 -25 -12 -81 -20 -125
-8 -44 -17 -98 -20 -120 -3 -22 -10 -67 -16 -100 -15 -87 -15 -91 -29 -193
l-13 -94 -36 7 c-65 12 -130 22 -221 31 -25 3 -54 6 -65 8 -94 18 -93 17 -90
39 4 20 45 258 81 467 8 47 17 99 20 115 2 17 7 37 9 45 2 8 7 40 10 70 4 30
8 57 10 60 2 3 6 24 9 46 4 22 8 49 10 60 2 11 7 45 11 76 l7 55 -44 7 c-25 4
-56 9 -69 11 -45 8 -226 35 -275 40 -27 3 -60 8 -74 10 -14 2 -79 11 -145 19
-292 37 -300 39 -298 56 1 8 30 152 64 320 33 168 63 316 66 330 2 13 11 56
19 95 21 98 23 103 35 165 14 76 40 196 74 348 3 13 9 21 13 18 4 -2 36 -7 72
-11 36 -4 74 -9 85 -11 11 -2 45 -7 75 -10 30 -3 66 -7 80 -9 49 -7 107 -15
235 -30 72 -9 141 -18 155 -20 14 -2 53 -6 87 -10 68 -7 60 -14 77 75 3 14 7
36 10 50 9 45 55 310 86 495 40 238 36 224 63 220 12 -2 60 -8 107 -14z m1053
-125 c15 -2 53 -7 85 -10 31 -4 66 -9 77 -11 11 -2 26 -4 33 -4 15 -1 14 -5
-12 -196 -3 -22 -8 -65 -11 -95 -3 -30 -8 -66 -10 -80 -2 -14 -7 -50 -10 -80
-4 -30 -8 -66 -10 -80 -2 -14 -7 -54 -10 -90 -4 -36 -9 -73 -11 -82 -1 -10 -6
-49 -10 -88 -5 -56 -4 -70 7 -72 8 0 19 -2 24 -3 13 -2 96 -17 116 -20 9 -2
74 -11 145 -20 172 -21 203 -25 244 -30 19 -3 60 -7 90 -11 30 -3 73 -7 95
-10 22 -2 51 -6 65 -9 14 -2 45 -7 70 -10 25 -3 54 -8 65 -10 11 -2 23 -4 28
-4 4 -1 5 -13 3 -28 -3 -16 -7 -64 -11 -108 -4 -44 -8 -102 -10 -130 -5 -53
-13 -159 -20 -235 -2 -25 -6 -79 -10 -120 -3 -41 -8 -91 -10 -110 -4 -35 -10
-98 -20 -225 -3 -38 -8 -86 -10 -105 -2 -19 -7 -64 -10 -100 -8 -93 -16 -164
-20 -171 -2 -3 -46 0 -97 8 -51 7 -117 15 -147 18 -30 3 -57 7 -60 9 -3 2 -31
7 -61 10 -30 3 -66 8 -80 10 -28 5 -153 23 -215 30 -48 6 -117 15 -165 21 -19
2 -64 7 -100 11 -36 3 -67 8 -70 9 -3 2 -7 -5 -7 -17 -1 -11 -7 -54 -13 -96
-6 -42 -13 -90 -15 -107 -2 -16 -6 -48 -9 -70 -6 -44 -11 -81 -21 -170 -4 -33
-9 -71 -11 -85 -2 -14 -6 -52 -9 -85 -3 -33 -8 -71 -10 -85 -2 -14 -11 -88
-20 -165 -10 -77 -19 -143 -21 -147 -2 -4 -14 -5 -27 -3 -12 2 -58 9 -103 15
-44 6 -91 13 -105 15 -13 3 -50 8 -81 12 -51 5 -61 11 -60 33 0 10 13 126 17
150 2 14 6 45 9 70 3 25 15 117 26 205 11 88 23 177 25 198 7 53 16 118 20
147 8 58 15 108 20 148 12 98 16 128 20 152 2 14 7 49 10 79 4 30 8 61 10 70
1 9 6 41 9 72 4 31 8 65 10 76 3 11 7 44 10 74 3 30 8 63 10 74 2 11 7 47 11
80 4 32 8 67 10 76 2 9 6 40 10 70 3 30 8 65 10 79 2 14 7 45 10 70 3 25 8 56
10 70 2 14 7 49 10 79 4 30 8 61 10 70 1 9 6 41 10 71 8 65 11 91 19 145 3 22
8 60 11 85 7 60 15 119 20 150 2 14 7 50 10 80 4 30 8 66 10 80 2 14 7 49 10
79 4 30 9 63 11 75 2 11 6 50 10 85 3 36 7 68 9 71 1 3 6 36 10 75 4 38 9 73
12 78 4 7 58 4 146 -7z m-1356 -88 c-12 -126 -30 -169 -43 -102 -10 54 19 164
44 164 2 0 2 -28 -1 -62z m-127 -4 c23 -61 5 -159 -38 -209 -28 -32 -45 -23
-63 32 -26 78 1 171 56 194 31 12 35 11 45 -17z m-180 -240 c31 -92 20 -152
-32 -177 -68 -33 -114 29 -109 147 1 21 14 42 47 73 56 52 64 48 94 -43z m255
-48 c-1 -19 -10 -76 -21 -126 l-18 -92 -66 7 c-36 4 -74 9 -85 10 -11 2 -29 4
-40 4 -16 1 -12 6 16 22 38 22 69 65 69 96 0 12 14 24 44 36 23 10 56 31 71
47 16 17 29 30 30 30 1 0 1 -15 0 -34z m-465 -117 c12 -23 19 -43 17 -46 -7
-7 -97 8 -97 16 0 15 45 70 57 71 2 0 12 -18 23 -41z m55 -1761 c63 -20 73
-26 70 -43 -2 -11 -4 -26 -4 -33 -1 -10 -15 -11 -58 -7 -98 11 -147 45 -129
91 8 20 36 18 121 -8z m38 -208 c-4 -61 -16 -69 -52 -32 -50 49 -33 99 28 82
23 -6 26 -11 24 -50z m1827 -864 c15 -20 9 -56 -12 -70 -28 -17 -39 3 -27 47
11 40 20 45 39 23z m-525 -91 c22 -4 66 -10 99 -15 32 -5 60 -11 63 -14 3 -2
6 -26 7 -53 2 -54 31 -102 82 -133 54 -34 69 -56 56 -85 l-12 -25 -51 19 c-82
31 -157 82 -213 142 -68 74 -123 187 -83 174 6 -2 30 -7 52 -10z m525 -70 c54
-27 80 -61 80 -104 0 -39 -27 -47 -112 -32 -78 14 -145 54 -171 104 -22 43
-21 46 25 58 49 12 125 1 178 -26z m61 -241 c86 -28 61 -39 -81 -35 -36 1 -67
5 -70 8 -3 2 6 13 19 24 28 23 67 24 132 3z m384 -874 c7 -11 -44 -34 -54 -24
-6 6 27 34 40 34 4 0 11 -5 14 -10z m-146 -99 c37 -26 71 -81 71 -112 0 -37
-26 -69 -52 -64 -48 10 -131 97 -145 154 -4 18 0 29 16 42 25 20 63 13 110
-20z m-107 -197 c38 -20 59 -67 47 -108 -26 -92 -146 -98 -177 -9 -30 88 49
159 130 117z"/>
    <path d="M3226 6553 c-23 -122 -23 -123 -33 -168 -13 -57 -10 -79 8 -83 13 -2
21 18 39 103 26 123 38 207 32 223 -2 7 -9 12 -16 12 -8 0 -19 -32 -30 -87z"/>
    <path d="M3166 6613 c-3 -10 -8 -34 -11 -53 -3 -19 -15 -77 -26 -128 -11 -50
-17 -97 -14 -102 5 -9 35 -15 35 -7 0 1 14 69 30 151 17 82 30 150 30 152 0
13 -40 1 -44 -13z"/>
    <path d="M3076 6612 c-4 -8 -32 -148 -41 -204 -2 -21 -1 -38 4 -38 17 0 41 31
42 53 1 24 1 28 18 97 15 62 14 87 -4 93 -8 4 -16 3 -19 -1z"/>
    <path d="M3977 6535 c-30 -15 -51 -57 -44 -87 4 -14 24 -37 47 -52 43 -28 45
-33 30 -56 -8 -13 -14 -13 -54 1 l-44 16 -5 -31 c-6 -38 -2 -43 49 -54 47 -11
111 6 131 35 7 9 13 34 13 55 0 34 -5 41 -35 59 -44 27 -61 54 -38 63 9 4 27
-1 40 -10 29 -18 29 -19 38 23 6 29 4 34 -20 43 -31 12 -79 10 -108 -5z"/>
    <path d="M4199 6513 c0 -5 -3 -17 -5 -28 -11 -44 -16 -155 -10 -190 12 -63 87
-89 153 -54 30 16 51 73 58 160 4 41 8 80 10 87 5 13 4 14 -43 18 -36 3 -37 0
-46 -97 -9 -92 -34 -139 -55 -101 -10 18 -6 85 5 104 3 5 8 31 11 59 l5 49
-41 0 c-23 0 -41 -3 -42 -7z"/>
    <path d="M4513 6492 c-27 -4 -29 -9 -58 -233 l-6 -45 40 -2 c39 -3 41 -1 41
25 0 43 11 73 26 73 10 0 14 -15 14 -55 0 -30 3 -55 8 -55 4 -1 24 -3 45 -6
l38 -6 -6 44 c-3 23 -11 58 -16 75 -9 30 -8 35 18 57 24 21 26 27 18 51 -6 16
-21 36 -35 46 -28 21 -93 36 -127 31z m87 -87 c0 -17 -16 -35 -31 -35 -19 0
-24 16 -13 44 5 12 10 13 25 5 10 -5 19 -11 19 -14z"/>
    <path d="M4765 6448 c-6 -18 -35 -221 -35 -246 0 -21 31 -29 145 -35 38 -2 40
-1 40 27 0 27 -4 30 -35 33 -53 6 -62 11 -58 35 3 21 8 23 51 20 26 -2 47 0
48 5 0 4 2 16 4 26 3 17 -10 23 -65 29 -17 2 -25 9 -25 23 0 18 6 20 51 18 48
-2 52 -1 58 23 4 15 6 27 4 29 -5 3 -145 25 -163 25 -8 0 -18 -6 -20 -12z"/>
    <path d="M5619 6353 c0 -5 -2 -15 -3 -23 -2 -8 -7 -51 -11 -95 -4 -44 -10 -98
-14 -121 -9 -49 -5 -85 11 -96 7 -4 14 -6 15 -4 6 6 22 106 27 176 4 41 9 96
12 123 5 43 3 47 -15 47 -12 0 -21 -3 -22 -7z"/>
    <path d="M5704 6332 c-15 -9 -40 -216 -34 -271 5 -43 6 -44 23 -27 11 11 17
34 18 64 1 26 2 58 4 72 19 148 17 180 -11 162z"/>
    <path d="M5785 6277 c-8 -22 -15 -71 -21 -154 -6 -80 -6 -83 15 -83 13 0 21 7
22 18 2 23 5 62 13 148 6 60 5 72 -9 78 -9 3 -18 0 -20 -7z"/>
    <path d="M3752 2245 c-35 -15 -52 -48 -52 -100 0 -24 -5 -35 -19 -40 -45 -14
-70 -104 -46 -163 18 -42 53 -63 106 -61 24 1 64 -3 88 -9 l43 -10 -7 32 c-3
17 -8 38 -9 46 -2 8 5 26 14 40 10 14 22 42 28 63 10 36 9 39 -14 48 -38 14
-54 11 -54 -10 0 -11 -5 -23 -12 -27 -6 -4 -8 -3 -5 3 4 6 1 26 -6 44 -8 19
-13 41 -12 49 1 8 3 20 3 26 1 6 13 9 27 6 23 -4 25 -1 25 31 0 49 -33 60 -98
32z m-6 -262 c0 -13 -5 -23 -12 -23 -16 0 -29 43 -19 67 6 17 7 16 18 -2 6
-11 12 -30 13 -42z"/>
    <path d="M2485 1986 c-43 -19 -66 -49 -72 -93 -4 -32 0 -45 29 -83 47 -62 51
-77 26 -94 -23 -17 -45 -10 -85 27 l-23 20 -15 -36 c-20 -47 -20 -47 11 -74
89 -76 233 -7 221 106 -3 25 -11 50 -19 55 -7 6 -24 24 -36 40 -17 22 -19 32
-11 42 17 20 34 17 67 -11 l30 -25 15 37 c17 45 15 54 -21 75 -41 24 -84 29
-117 14z"/>
    <path d="M2709 1902 c-5 -15 -12 -33 -14 -39 -2 -7 9 -16 28 -21 38 -10 39 -3
-13 -163 -22 -67 -40 -126 -40 -130 0 -9 78 -35 84 -28 2 2 23 64 46 137 23
72 46 134 50 137 5 3 20 1 35 -5 24 -9 27 -7 41 26 9 20 12 40 7 44 -4 4 -33
15 -63 24 -30 9 -77 22 -103 31 l-48 14 -10 -27z"/>
    <path d="M2967 1677 c-66 -237 -64 -214 -17 -222 22 -4 67 -15 101 -25 l61
-19 14 36 c18 42 15 46 -49 63 -26 7 -49 16 -51 19 -2 3 1 21 6 39 8 28 12 32
31 26 45 -15 87 -22 91 -15 2 3 7 20 10 37 7 30 5 32 -39 44 -53 15 -59 22
-51 56 5 19 11 24 24 19 9 -4 28 -9 42 -11 14 -3 33 -7 42 -10 10 -3 18 2 21
13 3 10 8 28 12 40 5 18 1 22 -27 28 -18 3 -53 13 -78 20 -104 33 -92 44 -143
-138z"/>
    <path d="M3275 1586 c-47 -95 -85 -179 -85 -185 0 -6 6 -11 14 -11 7 0 28 -3
45 -6 23 -5 31 -3 31 7 0 8 8 24 18 37 15 20 22 22 45 13 23 -9 27 -16 27 -50
0 -31 4 -40 18 -39 9 0 27 -2 39 -5 27 -7 44 12 38 44 -3 13 -8 96 -11 184 -3
88 -7 161 -9 163 -1 2 -15 5 -31 8 -16 2 -35 7 -41 9 -8 3 -44 -59 -98 -169z
m99 -21 c-4 -44 -13 -60 -26 -47 -7 7 -6 22 3 46 17 46 26 46 23 1z"/>
    <path d="M3597 1694 c-2 -5 -8 -33 -11 -63 -4 -30 -9 -64 -11 -75 -2 -12 -7
-37 -10 -56 -2 -19 -7 -46 -9 -60 -3 -14 -7 -46 -10 -72 l-6 -47 52 -6 c119
-15 119 -15 165 33 97 99 98 283 2 329 -32 16 -155 28 -162 17z m107 -90 c38
-14 31 -150 -9 -190 -25 -25 -57 -33 -50 -11 2 6 6 30 9 52 19 165 18 161 50
149z"/>
    <path d="M3927 1653 c-3 -5 -8 -39 -12 -78 -4 -38 -9 -77 -10 -86 -2 -8 -6
-55 -10 -105 -4 -49 -9 -92 -11 -96 -7 -10 27 -24 64 -26 31 -2 32 -1 33 40 1
24 4 57 8 73 6 29 8 30 61 30 l55 0 1 38 c1 20 -2 38 -5 38 -3 1 -16 3 -27 4
-52 5 -74 16 -74 34 0 36 11 51 34 47 11 -3 37 -7 57 -11 l37 -6 4 41 c2 23 1
43 -2 45 -3 2 -46 6 -95 10 -50 4 -93 9 -97 11 -4 2 -9 1 -11 -3z"/>
    <path d="M4236 1583 c-65 -212 -96 -318 -96 -330 0 -9 14 -13 44 -13 39 0 45
3 51 27 4 16 11 33 16 39 11 14 70 5 68 -10 -1 -6 -1 -23 0 -37 1 -23 5 -26
51 -28 28 -1 50 1 50 4 0 3 -7 38 -15 78 -8 40 -16 83 -19 97 -11 63 -45 202
-50 207 -3 3 -23 8 -45 10 l-40 5 -15 -49z m63 -165 c1 -19 -4 -28 -15 -28
-12 0 -15 8 -10 38 3 20 6 42 6 47 2 19 19 -30 19 -57z"/>
    <path d="M4564 1614 c-39 -13 -72 -46 -75 -74 -8 -68 9 -99 72 -135 50 -30 64
-50 54 -78 -10 -24 -42 -27 -82 -6 -20 10 -39 19 -40 19 -2 0 -3 -22 -3 -49 0
-45 2 -50 30 -61 17 -7 50 -10 76 -7 104 11 159 135 90 202 -6 6 -28 21 -49
34 -47 29 -62 54 -42 71 13 10 23 10 55 -3 l40 -15 0 43 c0 24 -5 47 -11 51
-28 17 -79 21 -115 8z"/>
    <path d="M4815 1620 c-38 -5 -40 -7 -43 -42 -3 -37 -3 -38 32 -38 19 0 37 -3
39 -7 4 -7 16 -125 22 -218 6 -99 -7 -89 94 -76 2 1 0 40 -3 89 -16 192 -16
212 -6 213 5 1 20 2 33 2 29 1 35 12 28 50 l-7 32 -74 0 c-41 0 -93 -2 -115
-5z"/>
    <path d="M1191 6098 c-7 -29 -31 -118 -52 -198 -45 -166 -45 -170 -21 -164 20
6 90 -56 86 -77 -1 -8 -37 -147 -79 -309 -42 -162 -79 -305 -81 -316 -2 -12
-13 -53 -24 -90 -11 -38 -25 -87 -31 -109 -31 -111 -25 -103 -72 -94 -23 4
-50 8 -59 9 -19 0 -25 -16 -94 -277 -37 -142 -40 -163 -26 -165 10 0 22 -2 27
-3 6 -2 16 -3 23 -4 6 0 12 -10 12 -20 0 -21 16 -26 105 -36 28 -3 73 -10 100
-15 28 -5 75 -12 105 -16 30 -3 62 -7 70 -9 8 -1 42 -6 75 -10 32 -4 66 -8 75
-10 8 -1 35 -6 60 -9 47 -6 51 -7 170 -27 41 -7 134 -13 205 -13 111 0 138 4
186 22 198 78 338 296 352 546 6 100 -15 194 -67 296 l-45 90 37 17 c55 26
144 120 177 188 84 174 86 407 4 552 -85 150 -227 201 -694 248 -40 4 -133 15
-165 20 -14 2 -54 6 -90 10 -36 3 -76 8 -90 10 -14 2 -57 7 -95 10 l-71 6 -13
-53z m198 -38 c42 -5 99 -12 126 -15 28 -3 64 -8 80 -10 138 -18 206 -26 240
-31 22 -2 56 -6 75 -9 19 -3 55 -7 80 -10 177 -23 259 -58 317 -133 87 -114
80 -299 -18 -482 -58 -110 -130 -168 -238 -191 -31 -6 -51 -16 -51 -24 0 -16
42 -58 81 -82 14 -8 40 -37 57 -62 84 -129 73 -313 -30 -513 -116 -225 -261
-270 -658 -207 -86 14 -115 18 -175 24 -27 3 -60 7 -72 9 -48 10 -106 18 -265
36 -60 7 -108 16 -108 20 0 4 12 52 26 106 14 55 27 107 29 117 13 58 13 59
78 55 l62 -3 33 120 c37 136 154 587 216 837 l42 168 -36 6 c-19 4 -43 8 -54
10 -10 2 -20 5 -23 7 -5 5 23 127 49 209 17 57 23 66 41 62 11 -2 55 -8 96
-14z"/>
    <path d="M1696 5679 c-21 -71 -18 -60 -56 -224 -16 -71 -30 -136 -30 -143 0
-30 161 9 232 56 90 59 122 195 66 280 -30 45 -113 92 -164 92 -30 0 -32 -3
-48 -61z m130 -67 c38 -24 27 -125 -18 -170 -53 -55 -58 -43 -30 73 15 58 29
105 32 105 3 0 10 -4 16 -8z"/>
    <path d="M1557 5073 c-3 -5 -14 -46 -25 -93 -63 -255 -92 -381 -92 -391 0 -21
143 12 220 51 23 12 60 39 81 61 88 90 85 255 -7 325 -50 39 -164 68 -177 47z
m159 -180 c7 -50 -6 -107 -34 -138 -17 -20 -66 -55 -77 -55 -11 0 -4 59 16
130 23 82 27 99 28 117 1 9 9 9 31 2 25 -9 30 -17 36 -56z"/>
    <path d="M6156 5548 c-7 -20 -29 -307 -30 -387 -1 -39 2 -44 23 -48 31 -4 35
-9 36 -36 0 -16 7 -23 28 -25 23 -3 30 -11 29 -32 0 -3 -3 -54 -7 -115 -3 -60
-8 -130 -10 -155 -2 -25 -6 -81 -9 -125 -3 -44 -9 -114 -12 -155 -4 -41 -7
-88 -9 -105 -6 -78 -18 -212 -21 -230 -1 -11 -3 -33 -3 -48 l-1 -28 -57 7
c-32 3 -61 8 -65 11 -5 2 -8 1 -9 -4 -15 -140 -32 -364 -33 -428 -1 -38 0 -40
33 -43 29 -3 33 -6 28 -28 -6 -32 7 -41 74 -48 31 -4 65 -8 75 -10 11 -2 46
-7 79 -11 52 -6 197 -25 305 -40 20 -3 47 -8 60 -10 33 -7 210 -34 280 -43 30
-4 111 -7 180 -7 119 0 128 2 190 31 121 57 203 170 235 323 16 77 20 193 10
275 -15 115 -76 279 -132 352 l-24 32 56 55 c30 31 65 78 76 104 96 225 43
557 -115 717 -89 89 -191 125 -486 170 -91 14 -190 28 -220 31 -30 4 -66 8
-80 10 -14 2 -54 6 -90 10 -36 3 -81 8 -100 10 -19 2 -60 7 -90 10 -107 12
-135 16 -163 21 -18 4 -29 1 -31 -8z m125 -83 c19 -4 45 -8 59 -10 14 -2 43
-6 65 -8 58 -8 169 -18 360 -32 78 -5 145 -13 195 -20 14 -3 43 -7 65 -11 70
-11 209 -55 250 -79 84 -48 143 -129 177 -239 17 -57 20 -85 15 -170 -12 -220
-99 -343 -269 -380 -16 -4 -28 -11 -28 -16 0 -5 25 -28 57 -52 144 -110 186
-173 219 -333 7 -31 6 -165 -2 -210 -22 -143 -104 -269 -209 -322 -42 -22 -64
-26 -135 -27 -76 0 -196 10 -210 19 -3 2 -27 6 -55 9 -126 14 -155 17 -225 26
-41 5 -100 12 -130 15 -30 4 -71 9 -90 11 -19 3 -53 7 -75 10 -54 7 -89 12
-163 25 -61 11 -63 12 -58 38 5 22 10 82 21 241 1 24 3 25 68 22 l67 -3 1 28
c0 15 2 35 3 43 3 14 12 117 22 235 3 47 10 128 19 240 3 28 7 91 10 140 12
190 14 217 19 283 17 212 18 222 4 226 -14 5 -83 15 -107 16 -10 0 -12 16 -6
83 11 122 13 138 14 180 0 21 5 36 9 33 5 -3 24 -8 43 -11z"/>
    <path d="M6759 5113 c-1 -18 -7 -106 -13 -203 -4 -58 -9 -138 -12 -179 l-6
-74 71 5 c167 12 257 126 221 279 -23 96 -129 179 -229 179 -17 0 -31 -3 -32
-7z m163 -161 c40 -34 29 -126 -21 -169 -45 -40 -51 -32 -45 65 7 118 10 133
32 125 9 -3 25 -13 34 -21z"/>
    <path d="M6729 4428 c-5 -12 -16 -176 -24 -368 -3 -63 -8 -125 -10 -137 -7
-32 5 -35 86 -18 127 27 204 77 236 154 49 116 -28 287 -155 343 -38 17 -130
35 -133 26z m181 -187 c19 -13 26 -29 28 -61 5 -71 -30 -135 -92 -167 l-29
-15 6 113 c4 63 7 125 7 138 0 20 3 22 28 17 15 -4 38 -15 52 -25z"/>
  </g>
</svg>
