<svg version="1" xmlns="http://www.w3.org/2000/svg" width="682.667" height="682.667" viewBox="0 0 512.000000 512.000000"><path d="M268.5 2.4c-7.4 2-13.5 5.1-18.6 9.4-6.1 5-11.9 18.1-11.9 26.8 0 10 6.2 21.6 15 27.9 8.9 6.4 10.4 10.1 4 9.9-16.9-.8-79.7 5-82.1 7.4-.4.4-1.4 4.7-2.2 9.7-.9 4.9-2.3 12.3-3.2 16.4-2.6 12.1-3 11.6 11.9 17.2 18.2 6.8 39.2 13.3 55.6 17 9.3 2.1 12 3.2 12 5 0 1.3-15.2 1-25-.5-4.7-.8-8.8-1.1-9.2-.7-.4.3-.8 2.4-1 4.6-.2 3.3-.8 4.3-3.5 5.6-1.7.9-4.2 2.3-5.5 3.1-1.3.8-3.9 1.8-5.8 2.2-2.5.4-5.1 2.2-8.5 5.7-2.8 2.8-7.6 6.9-10.8 9.1-3.6 2.6-6 5.1-6.4 6.7-.3 1.4-2.1 4.1-3.9 5.9-1.9 1.8-4.1 4.7-5 6.4l-1.6 3.1-6.6-.7c-3.7-.4-7.7-.9-8.8-1.2-1.9-.5-2.3.2-3.8 6.8-1.7 7.3-4.8 22.6-6.7 32.8-.6 3-3 15.5-5.5 27.8-2.4 12.2-4.4 23.3-4.4 24.6 0 1.3 1.8 4.6 4.1 7.5 3.9 4.9 4.2 5.1 9.2 5.2 8 0 20.8 2.4 21.8 4 .5.8.9 2.1.9 3 0 3.8 3.4 11.2 6 13.1 1.6 1.1 3.6 4 4.5 6.4.9 2.4 3.1 5.6 5 7.2l3.3 3-1.3 6.8c-.7 3.8-1.6 10.1-1.9 14-.7 7-.6 7.3 2.5 11.7 3.3 4.8 5 5.4 19.7 7.2 2.8.4 5.2 1 5.2 1.4 0 .4-1.9 2.6-4.1 5-9.9 10.3-24 12.8-39.7 7.3-11.2-4-18.1-8.4-28.1-17.9-9.9-9.3-12.1-12.4-10.1-14.8 1.8-2.2 4-1.9 9.2 1.4l4.6 2.9 1.6-6.6c2.4-9.8 2.1-17.6-.8-23.9-3.5-7.4-9.4-13.4-23.1-23.2-15.7-11.2-26.3-21.8-29.1-29.1-1.2-3-2.6-7-3-8.9l-.9-3.4-8.3 7.8c-13.5 12.7-25.7 29-32 42.7-7.4 16.3-9.2 23.6-9.9 40.5-.5 12.7-.3 14.9 1.7 21.4 3.2 10.6 6.3 16.1 12.8 22.8C52 410.2 61.2 417 63.2 417c.4 0 .8-4.2.8-9.3 0-14.8 2.4-19.7 9.5-19.7 4.8.1 6.9 1.8 16.3 14 19.5 25 40.7 43.5 74.7 65.2 23.2 14.9 28.5 18.7 34 24.3 5.8 6 11.5 15.2 11.5 18.8 0 2.6 1.2 2.1 6.1-2.4 12-11.1 30.6-20.3 62.4-30.8 17.9-5.9 22-6.8 24-5.1 1.2 1 1 1.8-1.8 5.7-7.5 10.4-8.1 12.7-5.2 18.2 2.7 5.4 7.1 8.1 12.9 8.1 6 0 15.5-2.5 16.1-4.3.2-.7.6-2.5 1-4 .3-1.6 2.3-4.7 4.4-7 3.3-3.7 3.9-5 4.3-10.3.3-3.3 1.3-7.5 2.2-9.2.9-1.7 1.6-4.9 1.6-7.1v-4l11.2-5.6c6.2-3.1 13.9-7.5 17.2-9.7 3.4-2.3 7.6-5.2 9.5-6.5 8-5.4 16.5-4.7 20.9 1.7 3.6 5.3 2.6 11.7-2.7 17.5-5.8 6.4-5.8 6.3 1 5.8 3.4-.3 8.1-1.3 10.6-2.4 5.6-2.4 18.4-12 22.3-16.7 5.1-6.2 10-16.8 12.8-27.5 2.3-9.1 2.6-12.1 2.5-27.2 0-13.1-.5-20-2.2-30-2.1-11.8-7.6-35.9-8.7-37.7-.2-.3-3.4 1.1-7 3.3-6.8 4.1-12.6 6.8-24.9 11.4-3.8 1.4-10.1 3.8-14 5.2-30 11.2-43.6 20.8-50.1 35.2-4.6 10.2-4.6 10.1 2.9 10.1 6.9 0 11.7 2.4 11.7 5.9 0 3.7-10.4 11.3-22.4 16.3l-6.9 2.8-2.3-2c-1.4-1.4-2.4-3.9-2.8-7-.4-2.6-1.5-5.9-2.6-7.3-1.1-1.4-2-3.4-2-4.5 0-3.8-2.1-7.7-6.5-12.2l-4.4-4.5 1.4-14c1.4-13.3 4.2-32.3 5-33.6.4-.5 13.4.9 46 5 8.8 1.2 16.5 2.1 17.1 2.1.7 0 1.4-3.3 1.7-8.3.4-4.5 1.8-20.8 3.2-36.2 1.5-15.4 3.1-33.9 3.7-41l1.1-13-2.8-4.3c-1.6-2.3-3.3-4.2-3.9-4.2-.6 0-8.1-.9-16.6-2.1-8.5-1.1-20.1-2.6-25.7-3.3-5.7-.7-10.5-1.5-10.8-1.7-.4-.5 1-13.6 3.8-35.5 1.4-10.8 1.3-11.2-3.1-18.4-2.7-4.3-3.1-4.5-8.7-5.2-3.2-.4-6.1-1-6.4-1.4-.3-.3.6-1.6 2.1-2.9 2.2-1.9 4.3-2.4 11.5-2.9 8.4-.6 44.8-4.1 56.3-5.5l5.5-.6 1.2-10c.6-5.5 1.5-14.3 1.8-19.6l.7-9.6-10.8-4.3c-6-2.3-13.8-5.3-17.4-6.5-10.3-3.6-12-4.6-12-7.1 0-3.4-1.5-6.8-5.4-11.9-3-3.9-3.4-5-2.5-6.7 1.5-2.8 1.4-8.5-.2-10.4-.7-.9-3-2.4-5.1-3.5-3.5-1.8-3.9-2.4-3.6-5.2.4-4.5 4.1-6.2 10.2-4.6 3.9 1 5 .9 7.1-.5 3.3-2.2 5.9-7.7 5.2-10.8-1.8-7.1-7.9-10-16.5-7.8-7.1 1.9-9.6.9-12.1-4.6-4.7-10-15.6-17.6-29.8-20.8-9.4-2.1-14.1-1.9-23.8.8zm28.9 4.8c5.9 2.2 13 7.7 16.7 13l2.2 3-2.5 2.2c-1.4 1.1-2.8 2.9-3.1 3.8-1.1 3.1-3.7 2-9.5-4.1-5.9-6.1-10.1-8.1-17.3-8.1-10.6 0-21.5 7.1-24.4 16-1.5 4.6-1.5 5.4-.1 9.7.9 2.5 2.3 5.4 3.2 6.4 1.3 1.5 1.5 3.1.9 8.8-.5 5-1.1 7.1-2.1 7.1-2.6 0-11.8-8.6-14.2-13.2-3.2-6.2-3.9-14.9-1.8-21.9 2.9-10.3 10.6-18 22.4-22.6 8-3.1 21.8-3.2 29.6-.1zm-6 15.2c3.6 1.5 6.6 5 6.6 7.7 0 1.5-.4 1.5-3.7.3-4.7-1.6-11.9-1.8-16.4-.3-4.7 1.6-9.7 6.6-11.1 11.1-1 3.4-1.2 3.6-2.4 2-3-3.9-1.2-12.3 3.8-16.9 5.1-4.8 16.5-6.7 23.2-3.9zm30.3 7.5c4.7 2.2 7.6 5.9 7.1 9.3C328.1 44 318 42 318 37c0-1-.9-2.9-2.1-4.4-3.6-4.6-1.1-5.8 5.8-2.7zm-29.8 3.5c4.2 2.2 8.9 8.1 9.7 12.2.8 4.5 0 13.4-2.3 25.4-1.7 9-1.8 9.1-4.3 8.5-1.4-.4-2.7-.8-2.9-1.1-.5-.5 1.9-31.2 2.6-33.8.3-1.2.1-1.7-.8-1.4-2.2.7-4.7 10.4-6 23.1l-1.1 11.8-9.7-.6c-5.3-.4-10.1-.8-10.7-1-.9-.3-.9-2.1.1-7.2.7-3.7 1.8-11.1 2.5-16.3 1.4-10.9 3.7-16.3 8.3-19 3.8-2.4 10.6-2.6 14.6-.6zm15.9.6c4.7 2.9 4 5.4-1.5 5.8-3.8.3-4.3.1-4.9-2.2-.7-3.1.1-5.6 1.8-5.6.7 0 2.8.9 4.6 2zm34.6-.4c.9.8 1.6 2.2 1.6 2.9 0 1.5-2.6 4.5-3.9 4.5-1.5 0-6.1-4.1-6.1-5.4 0-3.5 5.6-4.8 8.4-2zm-27.1 11.5c3.8 1 7.4 5 6.2 6.9-.9 1.5-7 1.2-11-.4-2.7-1.1-3.5-2.1-3.5-4 0-2.2.6-2.7 4-3.5.3 0 2.2.4 4.3 1zM310.2 56c.6 0 .6.6-.2 1.5-1.8 2.2-4 1.8-4-.6 0-1.5.4-1.9 1.6-1.5.9.3 2 .6 2.6.6zm19.4 5.4c1.9 1.9 3.4 4.3 3.4 5.5 0 1.8-.6 2.1-4 2.1-4.8 0-9.8-1.9-12.2-4.7-1.6-1.7-1.6-2.1-.2-4.1 2.5-3.6 8.8-3 13 1.2zm-14.7 7c3.2 3.3 3.3 3.7 2.1 6.5-.7 1.7-1 4.3-.7 5.7l.5 2.7-6.7-.7c-3.6-.4-7-1.1-7.4-1.5-.4-.4-.5-3.1-.1-5.9.5-4.3 1.2-5.4 4.3-7.6 1.9-1.4 3.8-2.6 4.1-2.6.4 0 2.1 1.6 3.9 3.4zm19.3 11.4c1.5 1.5 3 3.9 3.3 5.4.6 2.4.4 2.8-1.5 2.8-3.4 0-10.3-2.2-12.2-3.8-1-.8-1.8-2.5-1.8-3.8 0-5.1 7.4-5.4 12.2-.6zM271.5 82c32.6 2.4 61.3 9.1 94.8 22.2 8.5 3.3 12.7 5.5 12.7 6.5 0 1.1-.5 1.3-1.7.8-7.8-3.3-41-14-51.2-16.4-31.7-7.5-50.1-9.6-85.6-9.6-25.6.1-47.5 1.5-59.3 4.1-2.4.5-2.5.4-1-.9 2.1-1.6 26.7-5.7 41.2-6.7 15.5-1.1 34.7-1.1 50.1 0zm21 8.4c26.6 4 41.8 7.6 64.5 15.3 20.3 6.9 22 7.8 22 11.3 0 4-2.1 23.4-2.6 23.9-1.1 1.2-31.3 4.2-50.1 5-27 1.2-52.4 0-71.8-3.4-8.1-1.4-15-2.7-15.4-3-.4-.2-4.1-1.1-8.2-1.9-14.7-3.1-56.9-18.2-56.9-20.4 0-2.9 4.5-22.9 5.4-23.9.9-.9 11.1-2.5 37.6-5.7 1.9-.2 15.9-.3 31-.1 23.6.2 29.9.6 44.5 2.9zM267.3 150c4.4.5 8.1 1.1 8.3 1.2.3.3-1.2 11.9-6.1 47.8-1.4 10.7-3.5 26-4.5 34-1.1 8-3.1 23-4.5 33.5-4.1 29.7-7.4 54.9-9 68.5-.9 6.9-2.7 19.5-4.1 28-3.1 18.5-2.9 26.1.9 34.1 2.7 5.7 6.4 10.5 7.3 9.6.3-.3-.5-2.7-1.7-5.4-3.1-6.5-3.7-21.5-1.4-37.8.9-6.6 2.7-20.3 4.1-30.5 7.3-55.1 8.3-62.5 17.8-129 1.3-9.6 3.4-24.3 4.5-32.5 2.9-20.9 2.8-20.5 5.8-20.5 2.9 0 2.9-1.2-.1 20-.9 5.8-2.7 19-4.1 29.5-1.4 10.4-3.4 25.5-4.5 33.5s-3.1 23-4.5 33.5c-8.1 60.5-12.3 89.6-14.1 98.9-2.1 10.3-1.5 23.3 1.4 29.8 10.5 23.7 48.7 30.7 80.5 14.8 9.3-4.7 18.2-10.9 24.9-17.3 5.4-5.3 10.8-12.4 10.8-14.4 0-2.4-3.9-1.4-7.7 2.1-2.1 1.8-4.8 3.6-6 4-3.9 1.2-3.6-1.4.6-5.3 5-4.6 4.3-5.9-1.4-2.5-4.7 2.7-6.1 2.1-4.5-2 .8-2.1.7-2.6-.6-2.6-.8 0-2.4.5-3.5 1-5.7 3.1 1.7-6.1 9.6-12 7-5.2 12.7-7.9 29-13.9 22-8.2 26.7-10 31.7-12.7 3.2-1.7 4.9-2.1 5.4-1.3 1.7 2.9 5.5 24.4 6.5 37.4 2.5 32.9-3.7 56-18.1 67.4-6.1 4.8-9 5.3-9 1.5 0-1.7 1.3-3.7 4.1-6.2 4.5-4 6.9-7.9 6.9-11.2 0-3-1.1-2.4-4.5 2.1-3 4-9.1 8.6-10.1 7.6-.3-.3 1.3-3.6 3.5-7.3 6.3-10.4 5.3-14.6-1.3-5.4-5.7 8-10.6 6.1-5.2-1.9 1.3-2 2.7-5.4 3-7.6l.7-4-3.6 4c-7.6 8.4-8.7 9.5-9.6 9.5-1.9 0-.8-4.2 2.7-9.5 6.3-9.9 10.3-23.2 7.4-25-.9-.6-1.5.5-5.6 10.5-4.4 10.5-20.8 28.6-34.3 37.8-14.7 10-47.1 23.2-77.6 31.6-4.9 1.4-13 3.6-18 5-21.2 5.8-38.1 12.5-47 18.5l-2.9 2-6.1-5.7c-12.9-12.3-19.6-17.2-56.5-41.5-37.2-24.4-53.6-39.7-65.8-61.3-5.5-9.7-8.5-17.4-11.3-28.8-1.6-6.7-2.6-9.2-3-7.9-1.4 3.4-.9 12 1.1 19.8 2.2 8.6 2.6 13.5 1 11.9-.5-.5-2.5-4.8-4.4-9.4-3.2-7.8-3.5-8.3-4.1-5.7-.4 1.6-.5 5.5-.1 8.8.6 6.6-.2 7.4-3.4 2.8-2.7-3.7-3.4-3.1-3.1 2.7.2 4.2.1 4.5-1.8 3.5-3.1-1.7-3.3-1.4-2.6 3.1.7 4.2.7 4.3-1.2 2.6-1.1-1-2.5-1.8-3.1-1.8-2.1 0-1.7 2.2 2.2 11.2 2.3 5.5-.2 3.9-4-2.5-7.6-12.6-10-22.9-9.1-38.2 1-17.8 8.6-33.2 28.5-58.5 4.1-5.2 7.8-9.5 8.2-9.5.4 0 3.4 3.4 6.8 7.5 5.7 7.1 20 20.5 28.7 26.8 6.1 4.5 14.9 14.2 17.3 19.2 3.1 6.4 3.9 11 1.9 11-3.6 0-7.7-1.4-7.7-2.6 0-1.8-4.7-7.1-5.5-6.2-.4.4-.2 2.3.5 4.3 1.7 5.2.4 5.6-3.7 1.2-1.9-2.1-3.7-3.6-4-3.3-.3.3 0 1.2.7 2.1 1 1.2 1 1.5-.1 1.5-1.3 0-7.4-8.7-13.4-19.4-2.4-4-3-4.5-3.7-3.1-3.3 5.8 8.3 27.3 24.3 45.3 17.1 19.2 32.9 29.8 50.3 33.7 15.1 3.4 26.2.1 37.2-10.9 8.6-8.6 11.4-15.1 13.8-31.1 4.9-32.6 8.9-58.3 13.1-84.5 1.5-9.1 3.5-21.9 4.5-28.5 1-6.6 3.1-19.4 4.5-28.5 2.5-15.7 3.5-22.3 8.5-56 2.6-18 2.4-17.4 5.7-16.5 1.5.3 6.2 1 10.6 1.5zm31.5 1.6c3.6 1 2.5 2.4-1.8 2.4-3.8 0-5.4-1.3-2.7-2.3 1.7-.7 1.9-.7 4.5-.1zm-65.3 4.4c14.2 2 13.8 1.8 13.2 5.4-.3 1.7-1.7 10.3-3.2 19.1-1.4 8.8-3.5 21.4-4.6 28-1.8 11-3.6 22.6-8.9 56.5-1.1 6.9-3.1 19.7-4.5 28.5-1.3 8.8-3.4 22.1-4.5 29.5-1.1 7.4-2.2 14.2-2.5 15-.3.8-1.4 7.8-2.5 15.4-1.1 7.7-2.2 14.1-2.3 14.3-.5.4-24.5-2.5-25.6-3.1-.6-.4-.6-1.9 0-3.9.4-1.7 1.8-9.3 3-16.7 1.2-7.4 2.9-18.7 4-25 1-6.3 2.1-13.6 2.5-16.1l.6-4.6-8.3-1.2c-4.6-.6-15.4-2-23.9-3.1-24.6-3-26.1-3.2-26.6-4.5-.5-1.3 1.7-15.5 4.1-26.5 1.6-7.4 5-24.5 7-35.8.8-4.2 2-10.8 2.7-14.7l1.3-7 7.5.4c4.1.1 7.8.5 8.3.8.4.2 8.3 1.3 17.5 2.3 9.2 1 18.1 2.1 19.7 2.5 5.1 1 4.4 3.3 10.5-33.5 3.5-20.9 4.2-23.8 5.9-23.4.9.1 5.2.8 9.6 1.4zm75.8 8.7c3.6.5 3.7.7 3.7 4.7-.1 2.2-.7 9.2-1.5 15.3-.8 6.2-2.2 16.4-3 22.5-2.1 16.8-2.6 15.4 5.3 16.7 3.7.6 14.1 2 23.2 3.1 9.1 1 20.1 2.4 24.5 3.1l8.1 1.1-.8 8.2c-.5 4.4-1.5 15.5-2.3 24.6-2.9 32-5.2 53-5.8 53.6-.3.4-6.4-.1-13.4-1-23.1-3-44.7-5.5-48-5.6-4.2 0-3.1-5.3-9.8 45.5-1.4 11-2.8 20.1-3.1 20.4-.5.5-22.6-1.8-23.2-2.4-.3-.2.3-6.2 1.2-13.2.9-7 2.5-19.7 3.6-28.2 1.1-8.4 2.2-16.1 2.4-17 .3-.9 1.2-7.9 2.1-15.6.9-7.7 2-16 2.5-18.5.6-2.5 1.7-10.4 2.5-17.5.8-7.2 1.7-14.1 2-15.5.3-1.4 1.4-9 2.5-17 1-8 3.1-23.1 4.5-33.5 1.5-10.5 3.2-22.8 3.8-27.4l1-8.3 7.1.6c3.9.4 8.8 1 10.9 1.3zm-98.7 6.7c-.7 6.3-1.4 8.6-2.7 8.6-1.2 0-1.1-9.7.1-12.1 2.1-3.8 3.3-2.1 2.6 3.5zm-7.6 2.8c0 4.3-2.1 10.1-4.1 11.3-2 1.3-4.9-3.2-4.9-7.7 0-4.8 1.4-7.6 4.3-8.7 3.1-1.2 4.7.5 4.7 5.1zm-14 8.3c1.9 2.3 2.9 9.4 1.8 12.5-1 2.9-4.9 5.3-7.2 4.4-2.2-.8-3.9-6-3.3-9.8 1.1-7 5.7-10.7 8.7-7.1zm19 5.6c0 .5-.4 2.9-.9 5.2-.6 2.3-1.3 5.9-1.6 8l-.6 3.9-7.2-.7c-4-.4-7.4-.9-7.6-1.1-.2-.2 1.3-1.8 3.3-3.7 2-1.9 3.6-4.1 3.6-4.9 0-.9 1.3-2.1 2.9-2.8 1.6-.6 3.7-2 4.7-3.1 1.9-2.1 3.4-2.5 3.4-.8zm-31 9.9c.7 1.7 1.1 3.3.8 3.5-.2.2-2 .2-4-.1-2.8-.5-3.5-1-3.1-2.3 1.8-4.9 4.5-5.4 6.3-1.1zm4.3 116.1c4.7 1.3 5.7 2.8 3.7 5.9-.8 1.3-1.6 1.3-6.7 0-4.1-1.1-5.9-2-6.1-3.3-.6-2.9.6-5 2.6-4.4.9.3 3.8 1.1 6.5 1.8zm2.2 10.9c.3.5.3 2.5-.1 4.5-.5 3-.9 3.3-2.5 2.5-2.4-1.3-4.2-4.7-3.5-6.6.6-1.6 5.2-1.9 6.1-.4zM303 383.5c1 1.2 1 1.8 0 3-1.7 2.1-5.4 2-4.6-.1.3-.9.6-2.2.6-3 0-1.8 2.4-1.8 4 .1zm-24.7 6.2c1.1.3 1.6 1.1 1.3 1.9-1 2.5 1.3 6.8 5.5 10.5 3.2 2.9 4 4.1 3.4 5.8-.3 1.1-1.3 2.1-2.1 2.1-2.8 0-13-5.9-16.6-9.7-3.1-3.2-6.8-9.6-6.8-11.8 0-.7 12.1.3 15.3 1.2zm23.6 3.1c1.9.9 4.4 3 5.5 4.5 2.1 2.8 2.1 2.9.2 4.3-2.7 1.9-8.3 1.7-13.3-.5-4.3-2-6.3-4.5-6.3-8 0-1.9.6-2.1 5.3-2.1 3 0 6.7.7 8.6 1.8zm4.7 15.7c2 .8 3.3 1.9 2.9 2.5-.7 1.1-10 1.2-12.9.1-1.8-.7-1.8-.8.5-2.4 2.9-2.1 4.9-2.1 9.5-.2zm23.5 56c0 .5-.9 1.1-2.1 1.3-2 .3-2.7-.8-1.3-2.2 1-.9 3.4-.3 3.4.9zm-8 6.4c2.8 2.8 3.6 6.1 2.3 9.5-1.3 3.5-6.6.8-10.9-5.4-2.3-3.3-2.5-4.2-1.5-5.5 2.1-2.5 6.8-1.8 10.1 1.4zm-6 13.1c2.3 2.3 2.9 3.5 2.4 5.2-1.4 4.6-7.3 7-11.4 4.7-5.8-3.3-2.4-12.5 4.7-12.8.8-.1 2.7 1.2 4.3 2.9z"/><path d="M190.6 97.8c-1 1.7-3 17.2-2.3 17.9 1.2 1.2 1.8-.3 3.1-8.8 1.3-7.6.9-11.8-.8-9.1zM195.7 97.6c-.3.6-1.1 4.1-1.7 8-.6 3.8-1.3 7.9-1.6 9.1-.3 1.5 0 2.3.9 2.3 1 0 1.8-2.6 2.7-8.9 1.2-8.4 1.1-12.7-.3-10.5zM183.1 105.6c-1.1 6-.9 8.6.4 7.3.8-.9 3.3-12.8 2.7-13.3-1.4-1.5-2.1-.1-3.1 6zM244.8 102.1c-2.6 1.5-2.2 6.1.7 8.9 1.4 1.3 2.5 3.2 2.5 4.2 0 2.4-2.6 3.4-4.5 1.8-1.2-1-1.6-.9-2.2.5-.7 2 2 4.5 4.9 4.5 2.3 0 6.8-4.3 6.8-6.4 0-.9-1.4-3.1-3.1-5-3.3-3.8-3-6.1.6-5.2 2.6.7 4-1.5 2.2-3.3-1.4-1.4-5.6-1.4-7.9 0zM260.5 104.2c-2.3 7.6-1 17.2 2.6 18.3 5.7 1.8 8.7-2 9.7-11.9.5-5.3.3-5.8-1.4-5.4-1.5.2-2 1.5-2.6 5.7-.7 5.8-3.2 9.8-4.4 6.8-.3-.9-.4-4.3-.2-7.6.2-4.4-.1-6.2-1-6.6-1.9-.7-2.2-.6-2.7.7zM279.7 109.2c-.3 1.8-.9 5.9-1.3 9-.6 5.4-.5 5.8 1.5 5.8 1.5 0 2.1-.6 2.1-2.3 0-2.6 1.5-5.3 2.3-4.1.2.5.8 2.4 1.2 4.1.4 2 1.3 3.3 2.2 3.3 1.3 0 1.5-.9 1.1-5-.3-2.8-.1-5.3.3-5.6.5-.3.9-1.8.9-3.4 0-3.3-2.3-5-6.8-5-2.6 0-3.1.4-3.5 3.2zm6.8 2.4c0 1-.8 2-1.7 2.2-1.8.3-2.6-2.7-1.1-4.2 1.2-1.1 2.8 0 2.8 2zM297.6 110.2c-.3 1.3-.7 5.3-1.1 8.9l-.5 6.6 3.1.7c5.8 1.1 7.9.8 7.9-1.4 0-1.6-.7-2-3.5-2s-3.5-.4-3.5-2 .7-2 3.5-2c2.4 0 3.5-.5 3.5-1.5s-1-1.5-3-1.5c-2.3 0-3-.4-3-2s.7-2 3.5-2c4 0 4.9-2.4 1.3-3.4-4.9-1.3-7.7-.7-8.2 1.6zM355.6 116.1c-.7 2.4-2.5 18.4-2 18.8.2.2.6.2.9 0 .7-.8 2.7-19 2.1-19.6-.3-.3-.8 0-1 .8zM360.6 120.2c-1.4 8.7-1.7 15.2-.8 14.3 1-1 2.7-17.5 1.8-17.5-.3 0-.7 1.5-1 3.2zM365.6 124.6c-.3 2.6-.6 5.9-.6 7.3.1 4.7 1.8 0 2.1-5.6.4-6.7-.6-7.8-1.5-1.7zM230.3 388.5c-1.4 1-2.3 2.7-2.3 4.2s-1.1 3.6-2.5 4.9c-1.8 1.6-2.5 3.4-2.5 5.8 0 5.1 2.8 7.3 9.2 7.2 4.9-.1 5.1-.2 5.3-3.1.1-1.7.6-4.5 1-6.3.9-3.6-.9-4.5-3.1-1.5-1.1 1.7-1.3 1.6-2.4-1.1-1.4-3.9-.9-8.1 1-8.1.8 0 1.5-.7 1.5-1.5 0-2.1-2.6-2.3-5.2-.5zm-.5 14.9c1.2 2.8.5 4.1-1.5 2.5-1.4-1.3-1.8-4.9-.5-4.9.5 0 1.4 1.1 2 2.4zM145.7 406.7c-2.4 2.7-2.1 5.4.9 9.8 1.4 2.1 2.3 4.4 2 5.2-.9 2.2-3.4 2.6-6 1-2.2-1.5-2.4-1.5-2.9.4-1.1 4.1 6.6 6.5 11.1 3.3 3-2.1 2.9-6.5-.3-11.2-2.2-3.2-2.3-3.8-1.1-5.1 1.3-1.2 1.8-1.2 3.9.2 2.4 1.5 2.5 1.5 3.1-.6.7-2.8-.3-3.7-5-4.4-3-.4-4.3-.1-5.7 1.4zM163 411.6c0 .9.7 2.2 1.6 2.9 1.5 1 1.4 1.9-.9 9.5-2.7 8.7-2.7 10.3.1 9.8 1.1-.2 2.6-3.3 4.3-8.8 2.4-7.5 3-8.5 5.1-8.5 1.6 0 2.4-.7 2.6-2.1.3-1.8-.5-2.3-5.4-3.3-7.3-1.4-7.4-1.4-7.4.5zM179.7 425.4c-1.5 5.7-2.7 10.9-2.7 11.4 0 .6 2.5 1.6 5.6 2.2 4.6 1 5.8.9 6.5-.2 1-1.5-1.5-3.8-4.4-3.8-1.4 0-1.8-.6-1.5-2.8.3-2.5.6-2.7 4.6-2.4 3.7.3 4.2.1 4.2-1.7 0-1.5-.9-2.2-3.5-2.7-3.6-.6-3.9-1.1-2.9-3.7.4-1.1 1.6-1.4 4.5-1 3.4.5 3.9.3 3.9-1.5 0-1.6-1-2.2-5-3.1-2.8-.6-5.4-1.1-5.8-1.1-.4 0-2 4.7-3.5 10.4zM200 430.1c-2.8 5.6-4.9 10.8-4.6 11.5.8 2.1 3.4 1.7 4.6-.7 1.5-2.7 5.4-2.2 5.8.8.2 1.3.7 2.3 1.2 2.3s1.6.3 2.5.6c1.4.6 1.5-.5.9-11.2-.7-11.4-1.3-13.3-4.1-13.4-.7 0-3.5 4.6-6.3 10.1zm6 1.4c0 2.4-.5 3.5-1.5 3.5-1.8 0-1.9-1.1-.3-4.5 1.5-3.3 1.8-3.2 1.8 1zM220.9 423.1c-.7 2-3.4 23.1-3 23.5.2.2 2.6.4 5.2.4 3.8 0 5.3-.6 7.7-2.8 5.1-4.8 5.2-14.7.1-18.3-2.1-1.6-9.7-3.7-10-2.8zm8.1 6.8c2.6 5-.3 13-4.8 13.1-1 0-1.2-1.3-.7-5.8.4-3.1.9-6.5 1.1-7.5.7-2.3 3.1-2.2 4.4.2zM241.6 430.6c-1.8 15.3-1.8 17.6-.5 18.5 2.3 1.4 2.9 1 2.9-1.9 0-5.7 1-7.2 4.6-7.2 1.9 0 3.4-.5 3.4-1 0-.6.1-1.3.2-1.8.1-.4-1.1-.9-2.8-1.2-2.3-.4-3-1.1-3.2-3.4-.4-2.8-.3-2.9 3.6-2.2 3 .4 4.1.2 4.6-.9.7-2-.5-2.6-6.8-3.2l-5.4-.6-.6 4.9zM297.7 427.7c-1.5 1.5-.6 4.2 1.6 4.5 2 .3 2.2.9 2.7 9.3.5 8.5.6 9 2.8 9.3 2.3.3 2.3.2 2.2-8.5-.2-11.8-.3-11.3 2-11.3 1.3 0 2-.7 2-2 0-1.8-.7-2-6.3-2-3.5 0-6.7.3-7 .7zM260.5 434.2c-.9 3.5-2.3 8.2-3.1 10.6-1.9 5.7-1.8 6.2.9 6.2 1.3 0 2.6-.9 3.2-2.2 1.4-3.3 4.2-3.5 5.6-.4 1.1 2.4 4.9 3.7 4.9 1.7 0-.9-2.7-16-3.5-19.9-.4-1.6-1.2-2.2-3.4-2.2-2.6 0-3 .4-4.6 6.2zm5.4 7c.1 1-.6 1.8-1.4 1.8-1.6 0-2.2-5-.8-6.4.8-.8 2.1 1.9 2.2 4.6zM280.8 429.2c-.9.7-2 2.5-2.3 4-.7 2.7-.4 3.2 5.9 8.2 4 3.2 3 6-2 5.4-3.3-.4-3.5-.2-3.2 2.1.3 2.2.9 2.6 3.9 2.9 4.9.4 9.2-3.5 8.7-8-.2-2.5-1.2-3.9-4.5-6.1-2.4-1.6-4.3-3.5-4.3-4.3 0-2.1 2.9-2.9 5.2-1.5 1.7 1.1 1.9 1 1.6-1.1-.2-1.8-1-2.4-3.8-2.6-1.9-.2-4.3.3-5.2 1zM56.7 142.8c-3.1 13-3.3 15.2-1.4 15.2.7 0 2.1 1 3.1 2.1 2 2.4 1.9 4.9-1.4 18.4-1 4.4-3 12.7-4.3 18.5-1.4 5.8-3.5 14.9-4.7 20.3l-2.3 9.8-4.3-.7-4.2-.6-1.2 5.9c-.7 3.2-2.1 9.1-3.1 13.2-2.3 8.9-2.3 9.1-.5 9.1.8 0 2.1.7 2.9 1.5 1.5 1.5 7.5 2.5 40.9 7 22.6 3 25.7 3.1 33.6.4 8.4-2.8 15.1-9.2 19.4-18.4 3-6.5 3.2-7.7 3.3-18 0-10.4-.2-11.4-3.3-18l-3.3-7 2.3-1.7c1.3-.9 3.5-2.6 4.9-3.7 1.4-1.1 3.9-4.6 5.6-7.8 7.2-13.5 7-29.1-.5-39.8-5.6-8-12.6-10.7-33.7-13-28.8-3.2-41.1-4.5-43-4.5-1.7 0-2.4 1.6-4.8 11.8zm46 24c2 1.3 3 5.5 2.1 8.8-.8 3.3-7.3 9.8-8.7 9-.7-.5 1.2-13.6 2.4-17.4.5-1.3 2.4-1.6 4.2-.4zm-7.1 46.7c2.4 3.7 1.3 9.3-2.6 12.7-1.7 1.6-4 2.8-5.1 2.8-1.7 0-2-.5-1.5-2.8.3-1.5 1.1-5.5 1.7-9 1-5.5 1.4-6.2 3.5-6.2 1.4 0 3 1 4 2.5zM391.7 173.2c.3 3.2.2 3.9-.6 2.8-1.2-1.6-1.2-1.5-1.7 4.5-.2 2.2-.6 6.8-1 10.1-.5 5.6-.4 6.2 1.5 6.7 1.3.3 2.1 1.3 2.1 2.6 0 1.4.6 2.1 2 2.1 1.7 0 2 .7 2 3.9 0 2.1-.4 6-.9 8.7-.5 2.7-1.7 15-2.6 27.4-.9 12.4-2 23.5-2.5 24.7-.8 1.8-1.5 2-4.8 1.6-3.9-.5-3.9-.5-4.5 3.4-.4 2.2-1 8.5-1.3 14.2-.7 9.9-.6 10.2 1.4 10.8 1.4.3 2.2 1.3 2.2 2.8 0 2.1.6 2.3 8.3 3 4.5.3 11.6 1.3 15.7 2 4.1.8 15.7 2.3 25.8 3.5 27.2 3.1 33.6 1.4 41-11.1 7.3-12.1 6.6-36.4-1.3-48.9-1.4-2.2-2.5-4.3-2.5-4.6 0-.4 1.6-2.5 3.6-4.7 6.5-7.2 7.9-11.6 7.9-25.2 0-11.1-.2-12.5-2.8-18-6.8-14.6-17.8-19.8-46.7-22.5-6.9-.6-17.9-1.8-24.5-2.6-17.3-2-16.4-2.2-15.8 2.8zm46.7 33c5.2 2.3 7.7 10.6 4.5 14.5-1.2 1.4-6.8 4.3-8.4 4.3-.3 0-.5-1.7-.5-3.9 0-4.5 1.1-16.1 1.6-16.1.2 0 1.4.5 2.8 1.2zm-2 45.8c2.9 1.1 5.6 5.7 5.6 9.7 0 5.6-5.4 11.3-10.6 11.3-1.3 0-1.5-1.5-.9-10.3.4-5.6.9-10.5 1.2-11 .6-.9 1.7-.9 4.7.3zm-50.7 17.6c-.3.3-1.2.4-1.9.1-.8-.3-.5-.6.6-.6 1.1-.1 1.7.2 1.3.5z"/></svg>